HIERARCHY
ROOT mixamorig:Hips
{
	OFFSET 0.000000 201.639420 0.000000
	CHANNELS 6 Xposition Yposition Zposition Xrotation Yrotation Zrotation
	JOINT mixamorig:Spine
	{
		OFFSET 0.006200 19.524994 -2.481800
		CHANNELS 3 Xrotation Yrotation Zrotation
		JOINT mixamorig:Spine1
		{
			OFFSET -0.000900 22.835007 -2.825400
			CHANNELS 3 Xrotation Yrotation Zrotation
			JOINT mixamorig:Spine2
			{
				OFFSET -0.020600 26.552490 -3.193300
				CHANNELS 3 Xrotation Yrotation Zrotation
				JOINT mixamorig:Neck
				{
					OFFSET -0.060000 30.701813 1.352200
					CHANNELS 3 Xrotation Yrotation Zrotation
					JOINT mixamorig:Head
					{
						OFFSET -0.087200 22.547607 3.670900
						CHANNELS 3 Xrotation Yrotation Zrotation
						JOINT mixamorig:HeadTop_End
						{
							OFFSET -0.830600 40.355194 7.893500
							CHANNELS 3 Xrotation Yrotation Zrotation
							End Site
							{
								OFFSET 0.000000 30.592346 0.000000
							}
						}
						JOINT mixamorig:RightEye
						{
							OFFSET -6.302100 18.118591 16.197100
							CHANNELS 3 Xrotation Yrotation Zrotation
							End Site
							{
								OFFSET 0.000000 30.592346 0.000000
							}
						}
						JOINT mixamorig:LeftEye
						{
							OFFSET 6.741500 18.382690 16.401899
							CHANNELS 3 Xrotation Yrotation Zrotation
							End Site
							{
								OFFSET 0.000000 30.592346 0.000000
							}
						}
					}
				}
				JOINT mixamorig:LeftShoulder
				{
					OFFSET 11.924900 18.230499 1.425400
					CHANNELS 3 Xrotation Yrotation Zrotation
					JOINT mixamorig:LeftArm
					{
						OFFSET 25.435989 -0.697632 -5.229300
						CHANNELS 3 Xrotation Yrotation Zrotation
						JOINT mixamorig:LeftForeArm
						{
							OFFSET 54.684776 0.000000 0.000000
							CHANNELS 3 Xrotation Yrotation Zrotation
							JOINT mixamorig:LeftHand
							{
								OFFSET 55.098175 0.000000 0.000000
								CHANNELS 3 Xrotation Yrotation Zrotation
								JOINT mixamorig:LeftHandMiddle1
								{
									OFFSET 23.369751 0.000000 0.000000
									CHANNELS 3 Xrotation Yrotation Zrotation
									JOINT mixamorig:LeftHandMiddle2
									{
										OFFSET 6.378677 0.000000 0.000000
										CHANNELS 3 Xrotation Yrotation Zrotation
										JOINT mixamorig:LeftHandMiddle3
										{
											OFFSET 6.148331 0.000000 0.000000
											CHANNELS 3 Xrotation Yrotation Zrotation
											JOINT mixamorig:LeftHandMiddle4
											{
												OFFSET 6.582504 0.000000 0.000000
												CHANNELS 3 Xrotation Yrotation Zrotation
												End Site
												{
													OFFSET -1.168900 6.395691 1.028606
												}
											}
										}
									}
								}
								JOINT mixamorig:LeftHandThumb1
								{
									OFFSET 7.235672 -3.848206 5.434273
									CHANNELS 3 Xrotation Yrotation Zrotation
									JOINT mixamorig:LeftHandThumb2
									{
										OFFSET 6.568451 -3.792297 3.792300
										CHANNELS 3 Xrotation Yrotation Zrotation
										JOINT mixamorig:LeftHandThumb3
										{
											OFFSET 6.063080 -3.500519 3.500518
											CHANNELS 3 Xrotation Yrotation Zrotation
											JOINT mixamorig:LeftHandThumb4
											{
												OFFSET 4.793182 -2.767334 2.767349
												CHANNELS 3 Xrotation Yrotation Zrotation
												End Site
												{
													OFFSET 0.101639 6.054260 1.275483
												}
											}
										}
									}
								}
								JOINT mixamorig:LeftHandIndex1
								{
									OFFSET 23.101074 -0.309540 4.992809
									CHANNELS 3 Xrotation Yrotation Zrotation
									JOINT mixamorig:LeftHandIndex2
									{
										OFFSET 6.226883 0.000000 0.000000
										CHANNELS 3 Xrotation Yrotation Zrotation
										JOINT mixamorig:LeftHandIndex3
										{
											OFFSET 6.094330 0.000000 0.000000
											CHANNELS 3 Xrotation Yrotation Zrotation
											JOINT mixamorig:LeftHandIndex4
											{
												OFFSET 5.482605 0.000000 0.000000
												CHANNELS 3 Xrotation Yrotation Zrotation
												End Site
												{
													OFFSET -1.427902 5.233032 0.797164
												}
											}
										}
									}
								}
								JOINT mixamorig:LeftHandRing1
								{
									OFFSET 22.299240 0.021149 -3.964172
									CHANNELS 3 Xrotation Yrotation Zrotation
									JOINT mixamorig:LeftHandRing2
									{
										OFFSET 6.321869 0.000000 0.000000
										CHANNELS 3 Xrotation Yrotation Zrotation
										JOINT mixamorig:LeftHandRing3
										{
											OFFSET 5.899796 0.000000 0.000000
											CHANNELS 3 Xrotation Yrotation Zrotation
											JOINT mixamorig:LeftHandRing4
											{
												OFFSET 6.517899 0.000000 0.000000
												CHANNELS 3 Xrotation Yrotation Zrotation
												End Site
												{
													OFFSET -1.637299 6.232208 0.980890
												}
											}
										}
									}
								}
								JOINT mixamorig:LeftHandPinky1
								{
									OFFSET 20.463791 -0.302338 -8.562233
									CHANNELS 3 Xrotation Yrotation Zrotation
									JOINT mixamorig:LeftHandPinky2
									{
										OFFSET 6.908646 0.000000 0.000000
										CHANNELS 3 Xrotation Yrotation Zrotation
										JOINT mixamorig:LeftHandPinky3
										{
											OFFSET 4.622849 0.000000 0.000000
											CHANNELS 3 Xrotation Yrotation Zrotation
											JOINT mixamorig:LeftHandPinky4
											{
												OFFSET 5.216080 0.000000 0.000000
												CHANNELS 3 Xrotation Yrotation Zrotation
												End Site
												{
													OFFSET -0.606308 5.116241 0.814926
												}
											}
										}
									}
								}
							}
						}
					}
				}
				JOINT mixamorig:RightShoulder
				{
					OFFSET -12.001300 18.284088 1.348900
					CHANNELS 3 Xrotation Yrotation Zrotation
					JOINT mixamorig:RightArm
					{
						OFFSET -25.308500 -0.751312 -5.164599
						CHANNELS 3 Xrotation Yrotation Zrotation
						JOINT mixamorig:RightForeArm
						{
							OFFSET -54.684429 0.000000 0.000000
							CHANNELS 3 Xrotation Yrotation Zrotation
							JOINT mixamorig:RightHand
							{
								OFFSET -55.150291 0.000000 0.000000
								CHANNELS 3 Xrotation Yrotation Zrotation
								JOINT mixamorig:RightHandMiddle1
								{
									OFFSET -23.317566 0.000000 0.000000
									CHANNELS 3 Xrotation Yrotation Zrotation
									JOINT mixamorig:RightHandMiddle2
									{
										OFFSET -6.378403 0.000000 0.000000
										CHANNELS 3 Xrotation Yrotation Zrotation
										JOINT mixamorig:RightHandMiddle3
										{
											OFFSET -6.148193 0.000000 0.000000
											CHANNELS 3 Xrotation Yrotation Zrotation
											JOINT mixamorig:RightHandMiddle4
											{
												OFFSET -6.583389 0.000000 0.000000
												CHANNELS 3 Xrotation Yrotation Zrotation
												End Site
												{
													OFFSET 1.171692 6.395905 1.029786
												}
											}
										}
									}
								}
								JOINT mixamorig:RightHandThumb1
								{
									OFFSET -7.190521 -3.860474 5.435846
									CHANNELS 3 Xrotation Yrotation Zrotation
									JOINT mixamorig:RightHandThumb2
									{
										OFFSET -6.567429 -3.791718 3.791708
										CHANNELS 3 Xrotation Yrotation Zrotation
										JOINT mixamorig:RightHandThumb3
										{
											OFFSET -6.062469 -3.500153 3.500166
											CHANNELS 3 Xrotation Yrotation Zrotation
											JOINT mixamorig:RightHandThumb4
											{
												OFFSET -4.792618 -2.767029 2.767022
												CHANNELS 3 Xrotation Yrotation Zrotation
												End Site
												{
													OFFSET -0.100327 6.053253 1.276754
												}
											}
										}
									}
								}
								JOINT mixamorig:RightHandIndex1
								{
									OFFSET -23.048981 -0.310791 4.992554
									CHANNELS 3 Xrotation Yrotation Zrotation
									JOINT mixamorig:RightHandIndex2
									{
										OFFSET -6.227539 0.000000 0.000000
										CHANNELS 3 Xrotation Yrotation Zrotation
										JOINT mixamorig:RightHandIndex3
										{
											OFFSET -6.095047 0.000000 0.000000
											CHANNELS 3 Xrotation Yrotation Zrotation
											JOINT mixamorig:RightHandIndex4
											{
												OFFSET -5.484772 0.000000 0.000000
												CHANNELS 3 Xrotation Yrotation Zrotation
												End Site
												{
													OFFSET 1.420593 5.237305 0.797056
												}
											}
										}
									}
								}
								JOINT mixamorig:RightHandRing1
								{
									OFFSET -22.246323 0.020569 -3.963762
									CHANNELS 3 Xrotation Yrotation Zrotation
									JOINT mixamorig:RightHandRing2
									{
										OFFSET -6.322128 0.000000 0.000000
										CHANNELS 3 Xrotation Yrotation Zrotation
										JOINT mixamorig:RightHandRing3
										{
											OFFSET -5.900024 0.000000 0.000000
											CHANNELS 3 Xrotation Yrotation Zrotation
											JOINT mixamorig:RightHandRing4
											{
												OFFSET -6.518356 0.000000 0.000000
												CHANNELS 3 Xrotation Yrotation Zrotation
												End Site
												{
													OFFSET 1.636398 6.232697 0.982186
												}
											}
										}
									}
								}
								JOINT mixamorig:RightHandPinky1
								{
									OFFSET -20.411011 -0.303314 -8.561701
									CHANNELS 3 Xrotation Yrotation Zrotation
									JOINT mixamorig:RightHandPinky2
									{
										OFFSET -6.907349 0.000000 0.000000
										CHANNELS 3 Xrotation Yrotation Zrotation
										JOINT mixamorig:RightHandPinky3
										{
											OFFSET -4.623840 0.000000 0.000000
											CHANNELS 3 Xrotation Yrotation Zrotation
											JOINT mixamorig:RightHandPinky4
											{
												OFFSET -5.218353 0.000000 0.000000
												CHANNELS 3 Xrotation Yrotation Zrotation
												End Site
												{
													OFFSET 0.602097 5.118835 0.816273
												}
											}
										}
									}
								}
							}
						}
					}
				}
			}
		}
	}
	JOINT mixamorig:LeftUpLeg
	{
		OFFSET 18.168400 -13.561905 -0.039000
		CHANNELS 3 Xrotation Yrotation Zrotation
		JOINT mixamorig:LeftLeg
		{
			OFFSET 0.577358 -80.825211 -3.695000
			CHANNELS 3 Xrotation Yrotation Zrotation
			JOINT mixamorig:LeftFoot
			{
				OFFSET -0.577356 -83.370262 -6.520700
				CHANNELS 3 Xrotation Yrotation Zrotation
				JOINT mixamorig:LeftToeBase
				{
					OFFSET 0.750401 -20.798306 25.135401
					CHANNELS 3 Xrotation Yrotation Zrotation
					JOINT mixamorig:LeftToe_End
					{
						OFFSET -0.000500 0.001200 19.917799
						CHANNELS 3 Xrotation Yrotation Zrotation
						End Site
						{
							OFFSET 0.000000 19.917805 0.000000
						}
					}
				}
			}
		}
	}
	JOINT mixamorig:RightUpLeg
	{
		OFFSET -18.162500 -13.585098 -0.041000
		CHANNELS 3 Xrotation Yrotation Zrotation
		JOINT mixamorig:RightLeg
		{
			OFFSET -0.595024 -80.945297 -3.631900
			CHANNELS 3 Xrotation Yrotation Zrotation
			JOINT mixamorig:RightFoot
			{
				OFFSET 0.595024 -83.218193 -6.561200
				CHANNELS 3 Xrotation Yrotation Zrotation
				JOINT mixamorig:RightToeBase
				{
					OFFSET -0.753601 -20.807106 25.115000
					CHANNELS 3 Xrotation Yrotation Zrotation
					JOINT mixamorig:RightToe_End
					{
						OFFSET 0.000299 0.001700 19.918200
						CHANNELS 3 Xrotation Yrotation Zrotation
						End Site
						{
							OFFSET 0.000000 19.918203 0.000000
						}
					}
				}
			}
		}
	}
}
MOTION
Frames: 4
Frame Time: 0.033333
-1.930742 371.132202 -5.508564 -15.888294 -1.825181 4.842615 14.891219 1.346907 -1.602818 29.787964 2.283067 -2.425583 29.787937 2.283067 -2.425581 -0.011238 -1.682080 0.000540 -20.913547 -3.438868 0.000845 -0.000000 -0.000000 -0.000000 -0.000000 -0.000000 -0.000000 -0.000000 -0.000000 -0.000000 0.367660 0.281849 5.089925 -32.800078 -37.472948 -55.755917 -0.351841 -115.534549 -0.480137 56.518217 0.842349 -39.823462 1.233430 7.432919 -25.531375 -0.561483 -2.242811 -23.153822 -0.000002 -0.000002 0.000002 -0.000001 0.000000 0.000000 -4.435793 9.740091 19.791108 2.225648 6.470793 2.306970 0.000005 0.000008 0.000005 0.000000 -0.000002 0.000002 0.973840 7.105315 -10.640602 0.136508 0.898981 -25.998832 -0.000001 0.000003 -0.000003 -0.000000 -0.000001 -0.000003 -0.096495 8.126270 -31.411924 -0.774445 -3.682162 -27.615964 0.000001 0.000004 -0.000002 -0.000005 0.000000 -0.000001 -1.653003 7.843667 -27.119638 -1.860697 -7.915120 -38.887224 -0.000001 -0.000002 -0.000002 0.000000 0.000000 0.000001 2.425159 17.375074 5.211248 -9.321513 34.447257 26.594607 1.360132 81.780348 -1.375735 53.868995 2.917919 21.025738 0.413549 -8.435921 15.911385 -0.283074 1.239047 13.508717 0.000005 -0.000000 -0.000006 -0.000001 -0.000000 -0.000001 -4.388925 -8.799205 -20.570728 1.968148 -5.875350 -2.762378 -0.000004 -0.000004 0.000001 -0.000002 -0.000001 0.000000 -0.330877 -6.962857 2.203365 0.129808 -1.146996 17.624132 -0.000005 0.000009 -0.000010 -0.000004 0.000002 -0.000000 1.623555 -8.269991 21.306604 -0.492755 3.214930 17.224564 -0.000004 -0.000000 0.000004 0.000004 0.000000 0.000003 2.045611 -8.182611 17.011927 -1.490458 8.352885 27.664134 0.000001 0.000004 -0.000006 0.000001 -0.000003 -0.000001 -92.165528 -8.776610 22.033212 118.961132 -2.300095 -3.162963 -7.596496 -13.264436 -2.389689 -0.851164 -0.027548 0.064538 -0.000000 0.000001 0.000000 -72.164801 15.194220 -11.357656 148.006798 -0.915758 2.697100 -21.611671 7.338587 7.021719 -33.400223 -0.032442 0.189088 -0.000000 -0.000000 -0.000000 
-1.937712 371.130554 -5.520523 -15.895088 -1.845182 4.840918 14.887541 1.343387 -1.601866 29.780530 2.277119 -2.421862 29.780520 2.277119 -2.421861 -0.014630 -1.686003 -0.016612 -20.863007 -3.487563 0.015606 -0.000001 -0.000000 0.000000 -0.000001 -0.000000 0.000000 -0.000001 -0.000000 0.000000 0.371334 0.242857 5.046948 -32.729864 -37.403704 -55.681563 -0.351376 -115.547758 -0.479534 56.562511 0.829065 -39.698497 1.203681 7.373602 -25.495092 -0.559250 -2.238089 -23.123556 -0.000000 -0.000002 0.000001 0.000001 -0.000002 0.000002 -4.312750 9.518840 19.295573 2.227041 6.474326 2.304974 0.000007 0.000008 0.000008 0.000003 -0.000000 0.000003 0.898470 7.050925 -10.700183 0.134391 0.892775 -25.899743 0.000003 0.000003 -0.000001 -0.000003 0.000001 -0.000002 -0.078819 8.105835 -31.381130 -0.768327 -3.662798 -27.570694 -0.000001 0.000002 -0.000001 0.000002 -0.000000 -0.000001 -1.577157 7.873040 -27.008385 -1.831985 -7.862931 -38.740929 -0.000002 -0.000001 -0.000001 -0.000002 0.000000 0.000001 2.420622 17.361228 5.250512 -9.248944 34.511768 26.490790 1.359615 81.763614 -1.375199 53.753360 2.982740 21.018367 0.412871 -8.433571 15.949074 -0.283606 1.241310 13.546556 -0.000001 0.000000 -0.000007 0.000001 0.000001 -0.000004 -4.337845 -8.787119 -20.459465 1.968142 -5.875358 -2.762384 -0.000002 -0.000005 0.000005 0.000000 -0.000001 -0.000002 -0.330809 -6.964195 2.241229 0.130293 -1.148341 17.661988 0.000002 0.000008 -0.000009 0.000001 0.000000 -0.000002 1.622018 -8.266101 21.344034 -0.493958 3.218814 17.262299 0.000003 0.000000 0.000005 0.000000 -0.000000 0.000003 2.043703 -8.176513 17.048994 -1.493503 8.358591 27.701926 0.000003 0.000002 -0.000007 0.000001 0.000001 0.000001 -92.153076 -8.805309 22.032464 118.954602 -2.298112 -3.162797 -7.548682 -13.279221 -2.446477 -0.869920 -0.027577 0.064584 0.000000 0.000001 -0.000000 -72.187217 15.204964 -11.370859 148.017835 -0.933673 2.695579 -21.621708 7.347722 7.119593 -33.274639 -0.032783 0.189283 0.000000 0.000001 -0.000000 
-1.943863 371.126892 -5.531658 -15.903132 -1.870719 4.841945 14.883660 1.341487 -1.600053 29.772641 2.275013 -2.416359 29.772651 2.275013 -2.416359 -0.028499 -1.693804 -0.017808 -20.826618 -3.536222 0.014773 0.000000 -0.000000 -0.000000 0.000000 -0.000000 -0.000000 0.000000 -0.000000 -0.000000 0.374894 0.210485 4.995972 -32.624320 -37.343059 -55.545817 -0.349416 -115.568877 -0.477582 56.651802 0.829129 -38.957504 1.120888 7.207737 -25.384818 -0.552908 -2.224718 -23.038740 -0.000001 -0.000004 0.000003 -0.000001 -0.000001 0.000001 -3.971932 8.893139 17.913827 2.230937 6.484284 2.299437 0.000006 0.000011 0.000007 -0.000001 0.000002 -0.000000 0.686855 6.899556 -10.867839 0.128491 0.875255 -25.615072 -0.000000 0.000005 -0.000001 -0.000000 -0.000003 -0.000002 -0.029421 8.048663 -31.289554 -0.750962 -3.608046 -27.436836 0.000001 0.000001 0.000001 0.000001 0.000001 0.000000 -1.364034 7.959149 -26.697814 -1.752020 -7.715352 -38.321821 -0.000006 -0.000000 0.000001 0.000001 -0.000001 -0.000000 2.415138 17.334790 5.301497 -9.195123 34.562154 26.384585 1.359292 81.746108 -1.374807 53.634084 3.006699 21.041086 0.410992 -8.427017 16.054034 -0.285132 1.247625 13.651838 0.000003 0.000000 -0.000006 -0.000003 0.000001 -0.000004 -4.193317 -8.752319 -20.144405 1.968154 -5.875338 -2.762378 -0.000002 -0.000005 -0.000000 -0.000003 0.000001 -0.000003 -0.330615 -6.967927 2.346650 0.131680 -1.152083 17.767393 -0.000005 0.000010 -0.000010 0.000001 -0.000001 0.000001 1.617728 -8.255248 21.448228 -0.497324 3.229599 17.367339 0.000003 0.000001 0.000006 -0.000003 0.000003 -0.000001 2.038366 -8.159486 17.152174 -1.502043 8.374436 27.807078 0.000000 0.000005 -0.000004 0.000001 -0.000001 0.000001 -92.143773 -8.829191 22.040964 118.937731 -2.295835 -3.162617 -7.452823 -13.299187 -2.500413 -0.885973 -0.027605 0.064619 0.000000 0.000001 0.000000 -72.228151 15.214637 -11.396287 148.050839 -0.952972 2.693571 -21.636140 7.391688 7.182576 -33.204609 -0.032975 0.189387 0.000000 0.000001 -0.000000 
-1.949082 371.122986 -5.544964 -15.915302 -1.900597 4.851033 14.878164 1.341081 -1.594648 29.761566 2.277041 -2.403512 29.761566 2.277040 -2.403512 -0.043362 -1.705329 -0.020622 -20.777314 -3.594008 -0.013200 -0.000004 0.000000 -0.000000 -0.000004 0.000000 -0.000000 -0.000004 0.000000 -0.000000 0.381457 0.145616 4.907201 -32.405088 -37.266151 -55.289429 -0.345873 -115.589696 -0.474114 56.745683 0.775060 -37.333210 0.995284 6.953326 -25.198547 -0.543037 -2.203703 -22.908509 0.000003 -0.000005 0.000005 0.000001 0.000001 -0.000001 -3.459188 7.914964 15.808434 2.236918 6.499549 2.290922 0.000006 0.000007 0.000004 0.000003 0.000000 0.000002 0.360189 6.669861 -11.127646 0.119625 0.848076 -25.163887 0.000002 0.000003 0.000003 0.000001 0.000000 0.000000 0.046450 7.961176 -31.138368 -0.724043 -3.522777 -27.217170 -0.000001 0.000003 -0.000001 -0.000001 -0.000002 -0.000000 -1.035861 8.100496 -26.223009 -1.631459 -7.485360 -37.659785 0.000003 -0.000001 -0.000000 0.000001 0.000000 0.000001 2.415341 17.314931 5.305521 -9.189946 34.565545 26.364020 1.358572 81.730426 -1.374151 53.614683 2.971050 21.061134 0.408105 -8.417092 16.214019 -0.287485 1.257229 13.812354 -0.000002 0.000001 -0.000005 -0.000001 0.000001 -0.000001 -3.968665 -8.696624 -19.653666 1.968144 -5.875334 -2.762369 -0.000002 -0.000004 -0.000000 0.000000 -0.000002 -0.000000 -0.330321 -6.973663 2.507334 0.133785 -1.157816 17.928070 -0.000004 0.000007 -0.000009 -0.000004 -0.000001 0.000001 1.611137 -8.238744 21.607058 -0.502503 3.246041 17.527427 -0.000002 -0.000000 0.000004 0.000001 0.000000 0.000001 2.030172 -8.133550 17.309448 -1.515119 8.398571 27.967369 -0.000002 0.000003 -0.000006 -0.000002 0.000001 0.000001 -92.127620 -8.842381 22.058219 118.910247 -2.292136 -3.162322 -7.340043 -13.327329 -2.577395 -0.898430 -0.027630 0.064647 -0.000000 0.000000 0.000000 -72.274125 15.236665 -11.435457 148.104073 -0.978188 2.690753 -21.723019 7.507005 7.264197 -33.174475 -0.033061 0.189435 -0.000000 0.000001 -0.000000 
